<svg width="1200" height="320" viewBox="0 0 1200 320" fill="none" xmlns="http://www.w3.org/2000/svg">
  <defs>
    <linearGradient id="bg" x1="96" y1="24" x2="1104" y2="296" gradientUnits="userSpaceOnUse">
      <stop stop-color="#07111F" />
      <stop offset="0.5" stop-color="#0F1B33" />
      <stop offset="1" stop-color="#081322" />
    </linearGradient>
    <radialGradient id="glowA" cx="0" cy="0" r="1" gradientUnits="userSpaceOnUse" gradientTransform="translate(275 154) rotate(17.5) scale(205 116)">
      <stop stop-color="#7C3AED" stop-opacity="0.55" />
      <stop offset="0.6" stop-color="#3B82F6" stop-opacity="0.22" />
      <stop offset="1" stop-color="#3B82F6" stop-opacity="0" />
    </radialGradient>
    <radialGradient id="glowB" cx="0" cy="0" r="1" gradientUnits="userSpaceOnUse" gradientTransform="translate(896 196) rotate(-12.8) scale(244 126)">
      <stop stop-color="#14B8A6" stop-opacity="0.22" />
      <stop offset="0.72" stop-color="#14B8A6" stop-opacity="0.08" />
      <stop offset="1" stop-color="#14B8A6" stop-opacity="0" />
    </radialGradient>
    <linearGradient id="line" x1="146" y1="104" x2="434" y2="244" gradientUnits="userSpaceOnUse">
      <stop stop-color="#A78BFA" />
      <stop offset="0.52" stop-color="#60A5FA" />
      <stop offset="1" stop-color="#2DD4BF" />
    </linearGradient>
    <linearGradient id="cardStroke" x1="694" y1="88" x2="1016" y2="248" gradientUnits="userSpaceOnUse">
      <stop stop-color="#93C5FD" stop-opacity="0.55" />
      <stop offset="1" stop-color="#2DD4BF" stop-opacity="0.28" />
    </linearGradient>
    <filter id="softGlow" x="116" y="58" width="390" height="230" filterUnits="userSpaceOnUse" color-interpolation-filters="sRGB">
      <feGaussianBlur stdDeviation="24" />
    </filter>
    <clipPath id="clip">
      <rect x="12" y="12" width="1176" height="296" rx="28" />
    </clipPath>
  </defs>

  <rect x="12" y="12" width="1176" height="296" rx="28" fill="url(#bg)" />
  <rect x="12" y="12" width="1176" height="296" rx="28" stroke="#94A3B8" stroke-opacity="0.22" stroke-width="2" />

  <g clip-path="url(#clip)">
    <ellipse cx="275" cy="154" rx="164" ry="92" fill="url(#glowA)" />
    <ellipse cx="896" cy="196" rx="206" ry="108" fill="url(#glowB)" />

    <g opacity="0.16">
      <path d="M100 70H464" stroke="#93C5FD" stroke-width="1.5" stroke-dasharray="6 8" />
      <path d="M88 126H500" stroke="#A78BFA" stroke-width="1.5" stroke-dasharray="6 8" />
      <path d="M100 182H482" stroke="#2DD4BF" stroke-width="1.5" stroke-dasharray="6 8" />
      <path d="M88 238H500" stroke="#93C5FD" stroke-width="1.5" stroke-dasharray="6 8" />
      <path d="M636 76H1088" stroke="#93C5FD" stroke-width="1.5" stroke-dasharray="6 8" />
      <path d="M662 132H1112" stroke="#A78BFA" stroke-width="1.5" stroke-dasharray="6 8" />
      <path d="M636 188H1096" stroke="#2DD4BF" stroke-width="1.5" stroke-dasharray="6 8" />
      <path d="M662 244H1116" stroke="#93C5FD" stroke-width="1.5" stroke-dasharray="6 8" />
    </g>

    <g filter="url(#softGlow)" opacity="0.6">
      <ellipse cx="278" cy="156" rx="112" ry="64" fill="#7C3AED" />
      <ellipse cx="318" cy="178" rx="98" ry="54" fill="#0EA5E9" />
    </g>

    <g>
      <path d="M152 102L214 138" stroke="url(#line)" stroke-width="6" stroke-linecap="round" />
      <path d="M152 102L156 210" stroke="url(#line)" stroke-width="6" stroke-linecap="round" />
      <path d="M156 210L232 244" stroke="url(#line)" stroke-width="6" stroke-linecap="round" />
      <path d="M214 138L292 116" stroke="url(#line)" stroke-width="6" stroke-linecap="round" />
      <path d="M214 138L262 194" stroke="url(#line)" stroke-width="6" stroke-linecap="round" />
      <path d="M262 194L340 170" stroke="url(#line)" stroke-width="6" stroke-linecap="round" />
      <path d="M262 194L232 244" stroke="url(#line)" stroke-width="6" stroke-linecap="round" />
      <path d="M292 116L380 148" stroke="url(#line)" stroke-width="6" stroke-linecap="round" />
      <path d="M340 170L380 148" stroke="url(#line)" stroke-width="6" stroke-linecap="round" />
      <path d="M340 170L402 222" stroke="url(#line)" stroke-width="6" stroke-linecap="round" />
      <circle cx="152" cy="102" r="18" fill="#0F172A" stroke="#A78BFA" stroke-width="6" />
      <circle cx="156" cy="210" r="18" fill="#0F172A" stroke="#60A5FA" stroke-width="6" />
      <circle cx="214" cy="138" r="20" fill="#0F172A" stroke="#C084FC" stroke-width="6" />
      <circle cx="232" cy="244" r="20" fill="#0F172A" stroke="#2DD4BF" stroke-width="6" />
      <circle cx="292" cy="116" r="18" fill="#0F172A" stroke="#60A5FA" stroke-width="6" />
      <circle cx="340" cy="170" r="18" fill="#0F172A" stroke="#93C5FD" stroke-width="6" />
      <circle cx="380" cy="148" r="22" fill="#0F172A" stroke="#14B8A6" stroke-width="6" />
      <circle cx="402" cy="222" r="18" fill="#0F172A" stroke="#A78BFA" stroke-width="6" />

      <circle cx="336" cy="198" r="48" fill="#0B1220" fill-opacity="0.84" stroke="#E2E8F0" stroke-width="10" />
      <path d="M368 230L410 272" stroke="#E2E8F0" stroke-width="12" stroke-linecap="round" />
      <circle cx="336" cy="198" r="18" fill="#0F172A" stroke="#2DD4BF" stroke-width="6" />
      <path d="M324 198H348" stroke="#E2E8F0" stroke-width="5" stroke-linecap="round" />
      <path d="M336 186V210" stroke="#E2E8F0" stroke-width="5" stroke-linecap="round" />
    </g>

    <g>
      <rect x="708" y="82" width="302" height="62" rx="18" fill="#0B1220" fill-opacity="0.72" stroke="url(#cardStroke)" stroke-width="2" />
      <circle cx="742" cy="113" r="8" fill="#A78BFA" />
      <rect x="764" y="101" width="170" height="8" rx="4" fill="#E2E8F0" fill-opacity="0.92" />
      <rect x="764" y="117" width="126" height="7" rx="3.5" fill="#93C5FD" fill-opacity="0.56" />
      <rect x="946" y="103" width="34" height="18" rx="9" fill="#111C33" stroke="#2DD4BF" stroke-opacity="0.6" />

      <rect x="652" y="156" width="364" height="74" rx="20" fill="#0B1220" fill-opacity="0.68" stroke="url(#cardStroke)" stroke-width="2" />
      <circle cx="690" cy="193" r="10" fill="#60A5FA" />
      <rect x="718" y="178" width="214" height="9" rx="4.5" fill="#F8FAFC" fill-opacity="0.95" />
      <rect x="718" y="196" width="176" height="8" rx="4" fill="#A78BFA" fill-opacity="0.44" />
      <rect x="718" y="212" width="142" height="8" rx="4" fill="#2DD4BF" fill-opacity="0.36" />
      <rect x="942" y="182" width="40" height="22" rx="11" fill="#111C33" stroke="#93C5FD" stroke-opacity="0.58" />

      <rect x="736" y="244" width="250" height="46" rx="16" fill="#0B1220" fill-opacity="0.66" stroke="url(#cardStroke)" stroke-width="2" />
      <circle cx="766" cy="267" r="7" fill="#2DD4BF" />
      <rect x="786" y="258" width="116" height="7" rx="3.5" fill="#E2E8F0" fill-opacity="0.88" />
      <rect x="786" y="272" width="84" height="6" rx="3" fill="#93C5FD" fill-opacity="0.48" />
    </g>
  </g>
</svg>
